<?xml version="1.0" encoding="utf-8"?><svg viewBox="0 0 1792 1792" xmlns="http://www.w3.org/2000/svg" xmlns:xlink="http://www.w3.org/1999/xlink"><style>:root>svg{display:none}:root>svg:target{display:block}</style><svg fill="none" viewBox="0 0 63 60" id="airplane" xmlns="http://www.w3.org/2000/svg"><path d="M62.013 29.693c-.143 1.721-1.362 3.156-3.657 4.303-2.295 1.148-4.805 1.721-7.53 1.721h-8.66L27.75 58.738c-.251.43-.655.619-1.21.565l-6.024-.86c-.233-.019-.458-.135-.673-.35a.841.841 0 0 1-.161-.216c-.215-.322-.26-.654-.135-.995l6.159-21.165h-13.93L7.983 42.36c-.215.394-.565.6-1.049.618H1.772c-.323 0-.61-.125-.86-.376l-.055-.054a1.366 1.366 0 0 1-.295-.995l1.694-11.86-1.694-11.86c-.072-.323.017-.645.268-.968.216-.251.52-.395.915-.43l5.19-.027c.323 0 .61.125.86.376.109.108.171.188.19.242l3.791 6.643h13.931L19.548 2.504a1.274 1.274 0 0 1 .189-1.103 1.17 1.17 0 0 1 .968-.484h6.885c.484.018.824.215 1.021.592l13.609 22.16h8.606c2.725 0 5.235.574 7.53 1.721 2.295 1.148 3.514 2.582 3.657 4.303Z" fill="#C3D600"/></svg><svg fill="none" viewBox="0 0 16 16" id="infoCart" xmlns="http://www.w3.org/2000/svg"><path d="M10.667 13v-1.667a.324.324 0 0 0-.094-.24.324.324 0 0 0-.24-.093h-1V5.667a.324.324 0 0 0-.093-.24.324.324 0 0 0-.24-.094H5.667a.324.324 0 0 0-.24.094.324.324 0 0 0-.094.24v1.666c0 .098.032.177.094.24a.324.324 0 0 0 .24.094h1V11h-1a.324.324 0 0 0-.24.094.324.324 0 0 0-.094.24V13c0 .097.032.177.094.24a.324.324 0 0 0 .24.093h4.666a.324.324 0 0 0 .24-.093.325.325 0 0 0 .094-.24ZM9.333 3.667V2a.324.324 0 0 0-.093-.24.324.324 0 0 0-.24-.093H7a.324.324 0 0 0-.24.093.324.324 0 0 0-.093.24v1.667c0 .097.03.177.093.24A.324.324 0 0 0 7 4h2a.324.324 0 0 0 .24-.094.324.324 0 0 0 .093-.24Zm5.594.323A7.798 7.798 0 0 1 16 8a7.853 7.853 0 0 1-1.073 4.02 7.964 7.964 0 0 1-2.917 2.907A7.798 7.798 0 0 1 8 16a7.853 7.853 0 0 1-4.02-1.073 7.988 7.988 0 0 1-2.907-2.906A7.853 7.853 0 0 1 0 8a7.8 7.8 0 0 1 1.073-4.01 7.964 7.964 0 0 1 2.906-2.917A7.854 7.854 0 0 1 8 0a7.8 7.8 0 0 1 4.01 1.073 7.94 7.94 0 0 1 2.917 2.917Z" fill="#000" fill-opacity=".25"/></svg><svg viewBox="0 0 24 24" id="timeIcon" xmlns="http://www.w3.org/2000/svg"><path d="M12 0c2.129 0 4.161.58 6 1.645A11.753 11.753 0 0 1 22.355 6C23.419 7.839 24 9.871 24 12c0 2.177-.58 4.161-1.645 6-1.065 1.839-2.516 3.339-4.355 4.403A11.853 11.853 0 0 1 12 24c-2.177 0-4.161-.532-6-1.597A12.01 12.01 0 0 1 1.597 18C.532 16.161 0 14.177 0 12c0-2.129.532-4.161 1.597-6C2.66 4.161 4.16 2.71 6 1.645 7.839.581 9.823 0 12 0Zm0 21.677a9.433 9.433 0 0 0 4.839-1.306c1.451-.871 2.661-2.032 3.532-3.532.87-1.452 1.306-3.097 1.306-4.839a9.433 9.433 0 0 0-1.306-4.839 10.284 10.284 0 0 0-3.532-3.532A9.433 9.433 0 0 0 12 2.323c-1.742 0-3.387.435-4.839 1.306-1.5.871-2.661 2.08-3.532 3.532A9.433 9.433 0 0 0 2.323 12c0 1.742.435 3.387 1.306 4.839a9.517 9.517 0 0 0 3.532 3.532c1.452.87 3.097 1.306 4.839 1.306Zm3-5.032c.097.097.242.145.435.097.146 0 .29-.097.388-.242l.87-1.258c.097-.097.097-.242.097-.436 0-.145-.096-.29-.193-.387l-3.242-2.322V5.226c0-.145-.097-.29-.194-.387-.096-.097-.242-.194-.387-.194h-1.548a.614.614 0 0 0-.436.194.55.55 0 0 0-.145.387v7.935c0 .194.049.387.242.484l4.113 3Z"/></svg><svg viewBox="0 -256 1792 1792" id="userIcon" xmlns="http://www.w3.org/2000/svg"><path d="M1605.424 1169.61q0 120-73 189.5t-194 69.5h-874q-121 0-194-69.5t-73-189.5q0-53 3.5-103.5t14-109q10.5-58.5 26.5-108.5t43-97.5q27-47.5 62-81t85.5-53.5q50.5-20 111.5-20 9 0 42 21.5t74.5 48q41.5 26.5 108 48t133.5 21.5q67 0 133.5-21.5t108-48q41.5-26.5 74.5-48t42-21.5q61 0 111.5 20t85.5 53.5q35 33.5 62 81t43 97.5q16 50 26.5 108.5t14 109q3.5 50.5 3.5 103.5zm-320-893q0 159-112.5 271.5t-271.5 112.5q-159 0-271.5-112.5t-112.5-271.5q0-159 112.5-271.5t271.5-112.5q159 0 271.5 112.5t112.5 271.5z"/></svg></svg>